M48
;Layer_Color=9474304
;FILE_FORMAT=4:4
METRIC,LZ
;TYPE=PLATED
T01F00S00C0.7000
T02F00S00C0.7112
T03F00S00C0.7500
T04F00S00C0.7620
T05F00S00C0.9000
T06F00S00C2.0000
T07F00S00C2.0066
T08F00S00C2.5400
%
T01
X0078232Y0057277
X0081788
T02
X0093599Y0045212
X0040005Y0062265
Y0065532
T03
X0089916Y0048768
X0088265Y0050546
X008636Y0052451
X0091821Y004699
X0084709Y0054102
T04
X0070759Y0055245
X0073259
T05
X0031369Y0011049
Y0013589
X0059055Y0049149
Y0051689
X0078232Y0049911
X0080772
X0050546Y004953
X0048006
X0045466
X0042926
X00272141Y00500741
X00290102Y00518702
X00308062Y00536662
X00254181Y0048278
X0023622Y0046482
X0031369Y0023749
Y0021209
Y0018669
Y0016129
X00326023Y00554623
X0037465Y0060452
X0040005
X0042545
X0045085
X0047625
X0050165
X0048133Y0054102
X0045593
X0043053
X0053213
X0052705Y0075692
X0050165
X0047625
X0045085
X0042545
X0040005
X0037465
X0034925
X0042672Y0084328
X0045212
X0047752
X0050292
X0052832
X0055372
X0057912
X0060452
X0062992
X0065532
X0068072
X0067945Y0075692
X0070485
X0073025
X0075565
X0078105
X0080645
X0083185
X0080645Y0060452
X0078105
X0075565
X0073025
X0070485
X0067945
X0065405
X0062865
X0060325
X0059055Y0056769
Y0054229
X0060325Y0075692
X0062865
X0065405
X0057785
X0055245
T06
X010668Y0049022
X0008509Y0049657
X0025019Y0060833
X0043815Y0079883
X0075565Y0080899
X0090932Y0066167
T07
X00078742Y00130806
X01081258Y00129542
Y00319534
X00078742Y00320798
T08
X00382524Y00038354
X0076454Y0002667
X00752856Y00408686
X00382524
M30
