G04*
G04 #@! TF.GenerationSoftware,Altium Limited,Altium Designer,24.5.2 (23)*
G04*
G04 Layer_Physical_Order=2*
G04 Layer_Color=16711680*
%FSLAX44Y44*%
%MOMM*%
G71*
G04*
G04 #@! TF.SameCoordinates,5655CFCB-AA65-40B9-AC3C-96A7F36D51F4*
G04*
G04*
G04 #@! TF.FilePolarity,Positive*
G04*
G01*
G75*
%ADD10C,1.5000*%
%ADD11C,1.2000*%
%ADD12C,0.1270*%
%ADD13C,0.5000*%
%ADD14P,2.1213X4X90.0*%
%ADD15C,1.5000*%
%ADD16R,1.5000X1.5000*%
%ADD17C,1.7780*%
%ADD18R,1.7780X1.7780*%
%ADD19C,2.5400*%
G04:AMPARAMS|DCode=20|XSize=1.778mm|YSize=1.778mm|CornerRadius=0.4445mm|HoleSize=0mm|Usage=FLASHONLY|Rotation=0.000|XOffset=0mm|YOffset=0mm|HoleType=Round|Shape=RoundedRectangle|*
%AMROUNDEDRECTD20*
21,1,1.7780,0.8890,0,0,0.0*
21,1,0.8890,1.7780,0,0,0.0*
1,1,0.8890,0.4445,-0.4445*
1,1,0.8890,-0.4445,-0.4445*
1,1,0.8890,-0.4445,0.4445*
1,1,0.8890,0.4445,0.4445*
%
%ADD20ROUNDEDRECTD20*%
%ADD21C,1.2000*%
%ADD22R,1.2000X1.2000*%
%ADD23R,1.7780X1.7780*%
%ADD24C,2.0000*%
%ADD25C,2.0066*%
%ADD26R,1.5000X1.5000*%
%ADD27R,2.0320X2.0320*%
%ADD28C,2.0320*%
%ADD29C,1.7000*%
%ADD30C,1.7700*%
D10*
X353634Y770887D02*
G03*
X349250Y760290I10616J-10597D01*
G01*
X525780Y665720D02*
G03*
X510780Y680720I-15000J0D01*
G01*
X425330Y841890D02*
G03*
X422316Y839569I7572J-12949D01*
G01*
X582226Y488950D02*
G03*
X585337Y489282I-28J15000D01*
G01*
X516550Y570928D02*
G03*
X517337Y572051I-22557J16656D01*
G01*
X513741Y567124D02*
G03*
X504190Y542290I40290J-29749D01*
G01*
X505460Y503950D02*
G03*
X520460Y488950I15000J0D01*
G01*
X487370Y542290D02*
G03*
X481330Y541020I0J-15000D01*
G01*
X523268Y580965D02*
G03*
X525780Y589246I-12488J8309D01*
G01*
X778119Y747685D02*
G03*
X777924Y745276I14805J-2410D01*
G01*
X727710Y612872D02*
G03*
X730250Y604520I15000J0D01*
G01*
X779939Y754398D02*
G03*
X779297Y752650I13732J-6035D01*
G01*
X778753Y750820D02*
G03*
X778336Y749009I14382J-4260D01*
G01*
X603250Y756920D02*
G03*
X604520Y762961I-13730J6040D01*
G01*
X476250Y756920D02*
G03*
X477520Y762961I-13730J6040D01*
G01*
X628650Y756920D02*
G03*
X629920Y762961I-13730J6040D01*
G01*
X679450Y756920D02*
G03*
X680720Y762961I-13730J6040D01*
G01*
X655320Y843280D02*
G03*
X654050Y837267I13730J-6040D01*
G01*
X214630Y626110D02*
X345440Y756920D01*
X214630Y516890D02*
X248739Y482780D01*
X214630Y516890D02*
Y626110D01*
X248739Y482780D02*
X254181D01*
X345440Y756920D02*
X349250D01*
X349250Y750938D02*
Y758190D01*
Y750938D02*
X349250Y680720D01*
X510780D01*
X422316Y839569D02*
X422316Y839569D01*
X353634Y770887D02*
X422316Y839569D01*
X349250Y756920D02*
Y760290D01*
X525780Y607941D02*
Y665720D01*
X425330Y841890D02*
X425330Y842583D01*
X585337Y489282D02*
X589160Y490100D01*
X517337Y572051D02*
X523268Y580965D01*
X513741Y567124D02*
X516550Y570928D01*
X505460Y503950D02*
Y539750D01*
X582226Y488950D02*
X582226D01*
X520460D02*
X582226D01*
X487370Y542290D02*
X504190D01*
X525780Y589246D02*
Y607911D01*
X525780Y607941D01*
X589160Y490100D02*
X590550Y491490D01*
X782320Y551180D02*
Y572770D01*
Y499110D02*
Y551180D01*
X781050Y552450D02*
X782320Y551180D01*
X732590Y552450D02*
X781050D01*
X781582Y573508D02*
Y603988D01*
X781050Y604520D02*
X781582Y603988D01*
Y573508D02*
X782320Y572770D01*
X778753Y750820D02*
X779297Y752650D01*
X779939Y754398D02*
X781050Y756920D01*
X831850D02*
X832889Y755530D01*
X604520Y762961D02*
Y843280D01*
X577850Y757672D02*
X579120Y758942D01*
X552450Y757672D02*
X553720Y758942D01*
X527050Y757672D02*
X528320Y758942D01*
X501650Y757672D02*
X502920Y758942D01*
X477520Y762961D02*
Y843280D01*
X579120Y758942D02*
Y843280D01*
X553720Y758942D02*
Y843280D01*
X528320Y758942D02*
Y843280D01*
X502920Y758942D02*
Y843280D01*
X680720Y762961D02*
Y843280D01*
X654050Y756920D02*
Y837267D01*
X629920Y762961D02*
Y843280D01*
D11*
X425562Y604636D02*
G03*
X425447Y604523I5924J-6151D01*
G01*
X425562Y604636D02*
G03*
X429260Y613293I-8302J8665D01*
G01*
X429260Y625540D02*
G03*
X417260Y637540I-12000J0D01*
G01*
X298974Y558008D02*
G03*
X299786Y556037I76742J30463D01*
G01*
X301653Y570893D02*
G03*
X298974Y558008I8485J-8485D01*
G01*
X272141Y500741D02*
G03*
X269968Y503726I-10672J-5486D01*
G01*
X263865Y583905D02*
G03*
X260350Y575419I8485J-8485D01*
G01*
Y518314D02*
G03*
X263860Y509834I12000J0D01*
G01*
X340251Y604520D02*
G03*
X331754Y600994I0J-12000D01*
G01*
X350411Y637540D02*
G03*
X341925Y634025I0J-12000D01*
G01*
X278130Y530702D02*
G03*
X290011Y518702I12000J0D01*
G01*
X281645Y573745D02*
G03*
X278130Y565259I8485J-8485D01*
G01*
X330200Y453960D02*
G03*
X342200Y441960I12000J0D01*
G01*
X330200Y545475D02*
G03*
X326695Y553950I-12000J0D01*
G01*
X616650Y441960D02*
G03*
X628650Y453960I0J12000D01*
G01*
X464250Y576580D02*
G03*
X476250Y588580I0J12000D01*
G01*
X443259Y576580D02*
G03*
X431289Y565429I0J-12000D01*
G01*
X463870Y558188D02*
G03*
X454660Y546517I2790J-11671D01*
G01*
X485868Y563447D02*
G03*
X494834Y572616I-2770J11676D01*
G01*
X429832Y526581D02*
G03*
X429834Y526800I-11998J219D01*
G01*
X501645Y604496D02*
G03*
X501650Y604520I-11730J2531D01*
G01*
X431134Y563242D02*
G03*
X431104Y562417I11970J-849D01*
G01*
X429843Y534923D02*
G03*
X429834Y534477I11991J-469D01*
G01*
X430530Y552450D02*
G03*
X431104Y556117I-11426J3667D01*
G01*
X585543Y541184D02*
G03*
X590538Y542284I-25J12000D01*
G01*
X565150Y553184D02*
G03*
X577150Y541184I12000J0D01*
G01*
X565150Y694120D02*
G03*
X553150Y706120I-12000J0D01*
G01*
X425450Y718120D02*
G03*
X437450Y706120I12000J0D01*
G01*
X450850Y738440D02*
G03*
X462850Y726440I12000J0D01*
G01*
X734060Y711440D02*
G03*
X719060Y726440I-15000J0D01*
G01*
X590550Y567690D02*
G03*
X603135Y579676I585J11986D01*
G01*
X906059Y443951D02*
G03*
X921059Y442383I8470J8501D01*
G01*
X821920Y545060D02*
G03*
X821907Y528102I8485J-8485D01*
G01*
X853856Y576996D02*
G03*
X853857Y593943I-8497J8474D01*
G01*
X822652Y625148D02*
G03*
X814179Y628650I-8473J-8498D01*
G01*
X767650D02*
G03*
X755650Y616650I0J-12000D01*
G01*
X910431Y700045D02*
G03*
X901925Y703580I-8505J-8465D01*
G01*
X1005983Y586396D02*
G03*
X1006345Y603674I-8144J8813D01*
G01*
X947656Y569072D02*
G03*
X947875Y586285I-8252J8712D01*
G01*
X853145Y681015D02*
G03*
X844660Y684530I-8485J-8485D01*
G01*
X947634Y569051D02*
G03*
X935109Y557000I571267J-606256D01*
G01*
X844255Y661965D02*
G03*
X835770Y665480I-8485J-8485D01*
G01*
X913535Y575715D02*
G03*
X913535Y592685I-8485J8485D01*
G01*
X883690Y577620D02*
G03*
X883701Y594579I-8485J8485D01*
G01*
X834769Y643512D02*
G03*
X826296Y647013I-8472J-8498D01*
G01*
X1032914Y584605D02*
G03*
X1032922Y601568I-8485J8485D01*
G01*
X884895Y547075D02*
G03*
X884664Y546837I8498J-8473D01*
G01*
X742710Y647013D02*
G03*
X727710Y632013I0J-15000D01*
G01*
X755650Y742950D02*
G03*
X795020Y703580I39370J0D01*
G01*
X912835Y721655D02*
G03*
X904350Y725170I-8485J-8485D01*
G01*
X669050Y665480D02*
G03*
X654050Y650480I0J-15000D01*
G01*
X734060Y699530D02*
G03*
X749060Y684530I15000J0D01*
G01*
X777925Y740170D02*
G03*
X792925Y725170I15000J0D01*
G01*
X400050Y622650D02*
X400956Y619931D01*
X400050Y604520D02*
Y618119D01*
X400956Y619931D01*
X373510Y655320D02*
X400050D01*
X369700D02*
X373510D01*
X335280D02*
X369700D01*
X263865Y583905D02*
X335280Y655320D01*
X425445Y604525D02*
X425447Y604523D01*
X429260Y613293D02*
Y625540D01*
X350411Y637540D02*
X417260D01*
X299786Y556037D02*
X308062Y536662D01*
X301653Y570893D02*
X331754Y600994D01*
X263860Y509834D02*
X269968Y503726D01*
X260350Y518314D02*
Y575419D01*
X340251Y604520D02*
X374650D01*
X281645Y573745D02*
X341925Y634025D01*
X290011Y518702D02*
X290102Y518702D01*
X290102Y518702D02*
X290102Y518702D01*
X278130Y530702D02*
Y565259D01*
X342200Y441960D02*
X616650D01*
X326023Y554623D02*
X326695Y553950D01*
X330200Y453960D02*
Y545475D01*
X628650Y453960D02*
Y604520D01*
X443259Y576580D02*
X464250D01*
X431134Y563242D02*
X431289Y565429D01*
X476250Y588580D02*
Y604520D01*
X463870Y558188D02*
X485868Y563447D01*
X454660Y526800D02*
Y541020D01*
X494834Y572616D02*
X501645Y604496D01*
X454660Y541020D02*
Y546517D01*
X429834Y526800D02*
Y534477D01*
X429260Y495300D02*
X429832Y526581D01*
X454660Y495300D02*
Y510540D01*
X454660D02*
Y526800D01*
X431104Y556117D02*
Y562417D01*
X429843Y534923D02*
X430530Y552450D01*
X577150Y541184D02*
X585543D01*
X590538Y542284D02*
X590550Y542290D01*
X437450Y706120D02*
X553150D01*
X565150Y553184D02*
Y694120D01*
X425450Y718120D02*
Y756920D01*
X450850Y738440D02*
Y756920D01*
X462850Y726440D02*
X719060D01*
X590550Y567690D02*
X590550Y567690D01*
X603135Y579676D02*
Y604353D01*
X921059Y442383D02*
X935990Y452120D01*
X821907Y528102D02*
X906059Y443951D01*
X821920Y545060D02*
X853856Y576996D01*
X767650Y628650D02*
X814179D01*
X822652Y625148D02*
X853857Y593943D01*
X755650Y604520D02*
Y616650D01*
X910431Y700045D02*
X1006345Y603674D01*
X795020Y703580D02*
X901925D01*
X899160Y487680D02*
X1005983Y586396D01*
X947634Y569051D02*
X947656Y569072D01*
X749060Y684530D02*
X844660D01*
X853145Y681015D02*
X947875Y586285D01*
X844255Y661965D02*
X913535Y592685D01*
X884895Y547075D02*
X913535Y575715D01*
X669050Y665480D02*
X835770D01*
X742710Y647013D02*
X826296D01*
X847090Y541020D02*
X883690Y577620D01*
X834769Y643512D02*
X883701Y594579D01*
X939674Y491364D02*
X1032914Y584605D01*
X918210Y469900D02*
X939674Y491364D01*
X1032914Y601575D02*
X1032922Y601567D01*
X912835Y721655D02*
X1032914Y601575D01*
X882650Y505460D02*
X935109Y557000D01*
X863600Y524510D02*
X884664Y546837D01*
X727710Y612872D02*
Y632013D01*
X755650Y742950D02*
Y756920D01*
X778119Y747685D02*
X778336Y749009D01*
X792925Y725170D02*
X904350D01*
X654050Y604520D02*
Y650480D01*
X734060Y699530D02*
Y711440D01*
D12*
X771000Y908452D02*
G03*
X770079Y908843I-916J-879D01*
G01*
X402626Y907571D02*
G03*
X401726Y907192I4J-1270D01*
G01*
D13*
X300977Y804854D02*
X401726Y907192D01*
X-1270Y497840D02*
X99479Y600178D01*
X402626Y907571D02*
X770079Y908842D01*
X771000Y908452D02*
X1162167Y500905D01*
X99479Y600178D02*
X300977Y804854D01*
D14*
X236220Y464820D02*
D03*
D15*
X430530Y541020D02*
D03*
X455930D02*
D03*
X481330D02*
D03*
X505460Y495300D02*
D03*
X480060D02*
D03*
X454660D02*
D03*
X429260D02*
D03*
X254181Y482780D02*
D03*
X272141Y500741D02*
D03*
X290102Y518702D02*
D03*
X308062Y536662D02*
D03*
X326023Y554623D02*
D03*
X313690Y212090D02*
D03*
Y186690D02*
D03*
Y161290D02*
D03*
Y135890D02*
D03*
Y110490D02*
D03*
D16*
X532130Y541020D02*
D03*
D17*
X590550Y567690D02*
D03*
Y542290D02*
D03*
Y516890D02*
D03*
X732590Y552450D02*
D03*
X806450Y604520D02*
D03*
X781050D02*
D03*
X755650D02*
D03*
X730250D02*
D03*
X704850D02*
D03*
X679450D02*
D03*
X654050D02*
D03*
X628650D02*
D03*
X603250D02*
D03*
X501650D02*
D03*
X476250D02*
D03*
X450850D02*
D03*
X425450D02*
D03*
X400050D02*
D03*
X374650D02*
D03*
X806450Y756920D02*
D03*
X781050D02*
D03*
X755650D02*
D03*
X730250D02*
D03*
X704850D02*
D03*
X679450D02*
D03*
X654050D02*
D03*
X628650D02*
D03*
X603250D02*
D03*
X577850D02*
D03*
X552450D02*
D03*
X527050D02*
D03*
X501650D02*
D03*
X476250D02*
D03*
X450850D02*
D03*
X425450D02*
D03*
X400050D02*
D03*
X374650D02*
D03*
X349250D02*
D03*
X452120Y843280D02*
D03*
X477520D02*
D03*
X502920D02*
D03*
X528320D02*
D03*
X553720D02*
D03*
X579120D02*
D03*
X604520D02*
D03*
X629920D02*
D03*
X655320D02*
D03*
X680720D02*
D03*
D18*
X590550Y491490D02*
D03*
D19*
X382524Y38354D02*
D03*
Y408686D02*
D03*
X752856D02*
D03*
X764540Y26670D02*
D03*
D03*
D20*
X707590Y552450D02*
D03*
D21*
X817880Y572770D02*
D03*
D22*
X782320D02*
D03*
D23*
X831850Y756920D02*
D03*
X426720Y843280D02*
D03*
D24*
X1066800Y490220D02*
D03*
X909320Y661670D02*
D03*
X755650Y808990D02*
D03*
X438150Y798830D02*
D03*
X250190Y608330D02*
D03*
X85090Y496570D02*
D03*
D25*
X78742Y320798D02*
D03*
Y130806D02*
D03*
X1081258Y129542D02*
D03*
Y319534D02*
D03*
D26*
X313690Y237490D02*
D03*
D27*
X807720Y499110D02*
D03*
D28*
X782320D02*
D03*
D29*
X400050Y622650D02*
D03*
Y655320D02*
D03*
D30*
X935990Y452120D02*
D03*
X918210Y469900D02*
D03*
X899160Y487680D02*
D03*
X882650Y505460D02*
D03*
X863600Y524510D02*
D03*
X847090Y541020D02*
D03*
M02*
