G04*
G04 #@! TF.GenerationSoftware,Altium Limited,Altium Designer,24.5.2 (23)*
G04*
G04 Layer_Physical_Order=2*
G04 Layer_Color=16711680*
%FSLAX44Y44*%
%MOMM*%
G71*
G04*
G04 #@! TF.SameCoordinates,62529FE2-AEE2-4A7B-8C1A-F930561A9EB4*
G04*
G04*
G04 #@! TF.FilePolarity,Positive*
G04*
G01*
G75*
%ADD10C,1.2000*%
%ADD11C,1.5000*%
%ADD14C,2.0320*%
%ADD15C,2.2000*%
%ADD16C,2.0000*%
%ADD17C,1.7000*%
G36*
X1158964Y501036D02*
X1160000Y37317D01*
X1160000Y34871D01*
X1159362Y30020D01*
X1158096Y25295D01*
X1156224Y20775D01*
X1153778Y16538D01*
X1150799Y12657D01*
X1147340Y9198D01*
X1143459Y6220D01*
X1139222Y3775D01*
X1134702Y1903D01*
X1129976Y637D01*
X1125126Y-0D01*
X1122680Y0D01*
X38100Y-0D01*
X35603D01*
X30651Y652D01*
X25827Y1945D01*
X21213Y3856D01*
X16887Y6353D01*
X12925Y9393D01*
X9393Y12925D01*
X6353Y16887D01*
X3856Y21213D01*
X1945Y25827D01*
X652Y30651D01*
X0Y35603D01*
Y38100D01*
Y500000D01*
X401946Y910323D01*
X772160D01*
X1158964Y501036D01*
D02*
G37*
%LPC*%
G36*
X682503Y856820D02*
X678937D01*
X675494Y855897D01*
X672406Y854115D01*
X669885Y851594D01*
X668597Y849363D01*
X667443D01*
X666155Y851594D01*
X663634Y854115D01*
X660546Y855897D01*
X657103Y856820D01*
X653537D01*
X650094Y855897D01*
X647006Y854115D01*
X644485Y851594D01*
X643197Y849363D01*
X642043D01*
X640755Y851594D01*
X638234Y854115D01*
X635146Y855897D01*
X631703Y856820D01*
X628137D01*
X624694Y855897D01*
X621606Y854115D01*
X619085Y851594D01*
X617797Y849363D01*
X616643D01*
X615355Y851594D01*
X612834Y854115D01*
X609746Y855897D01*
X606303Y856820D01*
X602737D01*
X599294Y855897D01*
X596206Y854115D01*
X593685Y851594D01*
X592397Y849363D01*
X591243D01*
X589955Y851594D01*
X587434Y854115D01*
X584346Y855897D01*
X580903Y856820D01*
X577337D01*
X573894Y855897D01*
X570806Y854115D01*
X568285Y851594D01*
X566997Y849363D01*
X565843D01*
X564555Y851594D01*
X562034Y854115D01*
X558946Y855897D01*
X555503Y856820D01*
X551937D01*
X548494Y855897D01*
X545406Y854115D01*
X542885Y851594D01*
X541597Y849363D01*
X540443D01*
X539155Y851594D01*
X536634Y854115D01*
X533546Y855897D01*
X530103Y856820D01*
X526537D01*
X523094Y855897D01*
X520006Y854115D01*
X517485Y851594D01*
X516197Y849363D01*
X515043D01*
X513755Y851594D01*
X511234Y854115D01*
X508146Y855897D01*
X504703Y856820D01*
X501137D01*
X497694Y855897D01*
X494606Y854115D01*
X492085Y851594D01*
X490797Y849363D01*
X489643D01*
X488355Y851594D01*
X485834Y854115D01*
X482746Y855897D01*
X479303Y856820D01*
X475737D01*
X472294Y855897D01*
X469206Y854115D01*
X466685Y851594D01*
X464903Y848506D01*
X463980Y845063D01*
Y841497D01*
X464903Y838054D01*
X466685Y834966D01*
X467393Y834258D01*
Y767212D01*
X465415Y765234D01*
X464127Y763003D01*
X462973D01*
X461685Y765234D01*
X459164Y767755D01*
X456076Y769537D01*
X452633Y770460D01*
X449067D01*
X445624Y769537D01*
X442536Y767755D01*
X440015Y765234D01*
X438727Y763003D01*
X437573D01*
X436285Y765234D01*
X433764Y767755D01*
X430676Y769537D01*
X427233Y770460D01*
X423667D01*
X420224Y769537D01*
X417136Y767755D01*
X414615Y765234D01*
X412833Y762146D01*
X411910Y758703D01*
Y755137D01*
X412833Y751694D01*
X414296Y749159D01*
Y714901D01*
X414271D01*
X414667Y710874D01*
X415842Y707002D01*
X417749Y703434D01*
X420297Y700330D01*
X420305Y700338D01*
X420322Y700337D01*
X455227Y665432D01*
X455228Y665415D01*
X455220Y665407D01*
X458324Y662859D01*
X461892Y660952D01*
X465764Y659777D01*
X469791Y659381D01*
Y659406D01*
X553150D01*
X553186Y659411D01*
X554450Y659160D01*
X555553Y658423D01*
X556290Y657320D01*
X556541Y656056D01*
X556536Y656020D01*
Y594360D01*
Y553184D01*
X556511D01*
X556907Y549157D01*
X558082Y545286D01*
X559989Y541717D01*
X562556Y538590D01*
X565683Y536023D01*
X569252Y534116D01*
X573124Y532941D01*
X577150Y532545D01*
Y532570D01*
X581121D01*
X582236Y531455D01*
X585324Y529673D01*
X588767Y528750D01*
X592333D01*
X595776Y529673D01*
X598864Y531455D01*
X601385Y533976D01*
X603167Y537064D01*
X604090Y540507D01*
Y544073D01*
X603167Y547516D01*
X601385Y550604D01*
X598864Y553125D01*
X596633Y554413D01*
Y555567D01*
X598864Y556855D01*
X601385Y559376D01*
X603167Y562464D01*
X603344Y563124D01*
X605729Y565081D01*
X608296Y568209D01*
X610204Y571777D01*
X611378Y575649D01*
X611774Y579676D01*
X611749D01*
Y593870D01*
X614085Y596206D01*
X615373Y598437D01*
X616527D01*
X617815Y596206D01*
X620036Y593985D01*
Y453960D01*
X620041Y453924D01*
X619790Y452659D01*
X619053Y451557D01*
X617951Y450820D01*
X616686Y450569D01*
X616650Y450574D01*
X342200D01*
X342164Y450569D01*
X340900Y450820D01*
X339797Y451557D01*
X339060Y452659D01*
X338809Y453924D01*
X338814Y453960D01*
Y545475D01*
X338839D01*
X338480Y549120D01*
X338640Y549396D01*
X339563Y552840D01*
Y556405D01*
X338640Y559849D01*
X336857Y562936D01*
X334336Y565457D01*
X331249Y567240D01*
X327805Y568163D01*
X324240D01*
X320796Y567240D01*
X317709Y565457D01*
X315188Y562936D01*
X313405Y559849D01*
X312483Y556405D01*
Y552840D01*
X313149Y550352D01*
X312333Y549535D01*
X309845Y550202D01*
X309410D01*
X308334Y551278D01*
Y560312D01*
X343928Y595906D01*
X364115D01*
X366336Y593685D01*
X369424Y591903D01*
X372867Y590980D01*
X376433D01*
X379876Y591903D01*
X382964Y593685D01*
X385485Y596206D01*
X386773Y598437D01*
X387927D01*
X389215Y596206D01*
X391736Y593685D01*
X394824Y591903D01*
X398267Y590980D01*
X401833D01*
X405276Y591903D01*
X408364Y593685D01*
X410885Y596206D01*
X412173Y598437D01*
X413327D01*
X414615Y596206D01*
X417136Y593685D01*
X420224Y591903D01*
X423667Y590980D01*
X427233D01*
X430676Y591903D01*
X433764Y593685D01*
X436285Y596206D01*
X438067Y599294D01*
X438990Y602737D01*
Y606303D01*
X438067Y609746D01*
X437625Y610513D01*
X437898Y613287D01*
X437879D01*
X437874Y613293D01*
X437874Y613293D01*
Y625540D01*
X437899D01*
X437503Y629566D01*
X436328Y633438D01*
X434421Y637007D01*
X431854Y640134D01*
X428727Y642701D01*
X425158Y644608D01*
X421287Y645783D01*
X417260Y646179D01*
Y646154D01*
X407911D01*
X407497Y647154D01*
X408884Y648541D01*
X410338Y651059D01*
X411090Y653867D01*
Y656773D01*
X410338Y659581D01*
X409355Y661284D01*
X410143Y661918D01*
X446370Y628892D01*
X446919Y628509D01*
X449319Y626539D01*
X453669Y624214D01*
X458390Y622782D01*
X463298Y622299D01*
Y622333D01*
X510780D01*
X510944Y622355D01*
X512666Y622013D01*
X514264Y620944D01*
X515333Y619346D01*
X515675Y617624D01*
X515653Y617460D01*
Y608437D01*
X514653Y608305D01*
X514267Y609746D01*
X512485Y612834D01*
X509964Y615355D01*
X506876Y617137D01*
X503433Y618060D01*
X499867D01*
X496424Y617137D01*
X493336Y615355D01*
X490815Y612834D01*
X489527Y610603D01*
X488373D01*
X487085Y612834D01*
X484564Y615355D01*
X481476Y617137D01*
X478033Y618060D01*
X474467D01*
X471024Y617137D01*
X467936Y615355D01*
X465415Y612834D01*
X463633Y609746D01*
X462710Y606303D01*
Y602737D01*
X463633Y599294D01*
X465415Y596206D01*
X467636Y593985D01*
Y588580D01*
X467641Y588544D01*
X467390Y587280D01*
X466653Y586177D01*
X465550Y585440D01*
X464286Y585189D01*
X464250Y585194D01*
X443259D01*
Y585219D01*
X439233Y584823D01*
X435361Y583648D01*
X431793Y581741D01*
X428665Y579174D01*
X426098Y576047D01*
X424191Y572478D01*
X423016Y568606D01*
X422825Y566664D01*
X422697Y566039D01*
X422542Y563852D01*
X422567Y563434D01*
X422469Y562435D01*
X422475Y562435D01*
X422490Y562417D01*
Y556117D01*
X422495Y556081D01*
X422298Y555092D01*
X422298D01*
X422210Y554679D01*
X422085Y553731D01*
X421923Y552787D01*
X421873Y551511D01*
X419695Y549334D01*
X417913Y546246D01*
X416990Y542803D01*
Y539237D01*
X417913Y535794D01*
X419695Y532706D01*
X421220Y531181D01*
Y526800D01*
X421225Y526769D01*
X421220Y526738D01*
X420841Y506030D01*
X418425Y503614D01*
X416643Y500526D01*
X415720Y497083D01*
Y493517D01*
X416643Y490074D01*
X418425Y486986D01*
X420946Y484465D01*
X424034Y482683D01*
X427477Y481760D01*
X431043D01*
X434486Y482683D01*
X437574Y484465D01*
X440095Y486986D01*
X441383Y489217D01*
X442537D01*
X443825Y486986D01*
X446346Y484465D01*
X449434Y482683D01*
X452878Y481760D01*
X456443D01*
X459886Y482683D01*
X462974Y484465D01*
X465495Y486986D01*
X467277Y490074D01*
X468200Y493517D01*
Y497083D01*
X467277Y500526D01*
X465495Y503614D01*
X463274Y505835D01*
Y510540D01*
X463274Y510540D01*
Y526800D01*
Y529625D01*
X464244Y530185D01*
X466765Y532706D01*
X468053Y534937D01*
X469207D01*
X470495Y532706D01*
X473016Y530185D01*
X476104Y528403D01*
X479547Y527480D01*
X483113D01*
X486556Y528403D01*
X489644Y530185D01*
X491622Y532163D01*
X495333D01*
Y504322D01*
X494625Y503614D01*
X492843Y500526D01*
X491920Y497083D01*
Y493517D01*
X492843Y490074D01*
X494625Y486986D01*
X497146Y484465D01*
X500234Y482683D01*
X503677Y481760D01*
X507243D01*
X508317Y482048D01*
X510831Y480704D01*
X515551Y479272D01*
X520460Y478789D01*
Y478823D01*
X582226D01*
X582245Y478807D01*
X582245Y478793D01*
X584992Y479064D01*
X585324Y478873D01*
X588767Y477950D01*
X592333D01*
X595776Y478873D01*
X598864Y480655D01*
X601385Y483176D01*
X603167Y486264D01*
X604090Y489707D01*
Y493273D01*
X603167Y496716D01*
X601385Y499804D01*
X598864Y502325D01*
X595776Y504107D01*
X592333Y505030D01*
X588767D01*
X585324Y504107D01*
X582236Y502325D01*
X579715Y499804D01*
X579296Y499077D01*
X520460D01*
X520296Y499055D01*
X518574Y499397D01*
X518337Y499556D01*
X518077Y500526D01*
X516295Y503614D01*
X515587Y504322D01*
Y539750D01*
X515242Y542371D01*
X514570Y543993D01*
X515951Y549748D01*
X518356Y555552D01*
X521539Y560747D01*
X521888Y561109D01*
X524696Y564913D01*
X524704Y564907D01*
X524895Y565131D01*
X525532Y566171D01*
X525768Y566441D01*
X531699Y575355D01*
X531724Y575339D01*
X534026Y579645D01*
X535458Y584365D01*
X535937Y589228D01*
X535923Y589228D01*
X535907Y589246D01*
Y617460D01*
X535941D01*
X535458Y622369D01*
X534026Y627089D01*
X531701Y631439D01*
X528572Y635252D01*
X524759Y638381D01*
X520409Y640706D01*
X515689Y642138D01*
X510780Y642621D01*
Y642587D01*
X463298D01*
X463134Y642565D01*
X461412Y642907D01*
X460049Y643819D01*
X460015Y643859D01*
X419847Y680478D01*
X419299Y680860D01*
X416898Y682831D01*
X412547Y685156D01*
X407827Y686588D01*
X402919Y687071D01*
Y687037D01*
X364782D01*
X364618Y687015D01*
X362896Y687357D01*
X361297Y688426D01*
X360229Y690024D01*
X359887Y691746D01*
X359908Y691910D01*
Y748430D01*
X360085Y748606D01*
X361867Y751694D01*
X362790Y755137D01*
Y758703D01*
X361867Y762146D01*
X360896Y763828D01*
X426809Y829740D01*
X428503D01*
X431946Y830663D01*
X435034Y832445D01*
X437555Y834966D01*
X439337Y838054D01*
X440260Y841497D01*
Y845063D01*
X439337Y848506D01*
X437555Y851594D01*
X435034Y854115D01*
X431946Y855897D01*
X428503Y856820D01*
X424937D01*
X421494Y855897D01*
X418406Y854115D01*
X415885Y851594D01*
X414103Y848506D01*
X413180Y845063D01*
Y844754D01*
X346474Y778047D01*
X346462Y778047D01*
X346444Y778064D01*
X343329Y774268D01*
X341004Y769918D01*
X340092Y766910D01*
X338415Y765234D01*
X337026Y762827D01*
X215673Y641474D01*
X215673Y641474D01*
X215648Y641498D01*
X212519Y637686D01*
X210194Y633336D01*
X208762Y628615D01*
X208279Y623707D01*
X208313D01*
Y524734D01*
X208279D01*
X208762Y519826D01*
X210194Y515106D01*
X212519Y510755D01*
X215648Y506943D01*
X215673Y506967D01*
X215673Y506967D01*
X240641Y481999D01*
Y480998D01*
X241563Y477554D01*
X243346Y474467D01*
X245867Y471946D01*
X248954Y470163D01*
X252398Y469240D01*
X253399D01*
X266584Y456056D01*
X266710Y455959D01*
X267683Y454504D01*
X268025Y452782D01*
X268003Y452618D01*
Y392190D01*
X267969D01*
X268452Y387281D01*
X269884Y382561D01*
X272209Y378211D01*
X275338Y374398D01*
X279151Y371269D01*
X283501Y368944D01*
X288221Y367512D01*
X293130Y367029D01*
Y367063D01*
X645400D01*
Y367029D01*
X650309Y367512D01*
X655029Y368944D01*
X659379Y371269D01*
X663192Y374398D01*
X666321Y378211D01*
X668646Y382561D01*
X670078Y387281D01*
X670561Y392190D01*
X670527D01*
Y533240D01*
X670505Y533404D01*
X670847Y535126D01*
X671916Y536724D01*
X673514Y537793D01*
X675236Y538135D01*
X675400Y538113D01*
X718688D01*
X719396Y537405D01*
X722484Y535623D01*
X725927Y534700D01*
X729493D01*
X732936Y535623D01*
X736024Y537405D01*
X736732Y538113D01*
X772193D01*
Y508132D01*
X771485Y507424D01*
X769703Y504336D01*
X768780Y500893D01*
Y497327D01*
X769703Y493884D01*
X771485Y490796D01*
X774006Y488275D01*
X777094Y486493D01*
X780537Y485570D01*
X784103D01*
X787546Y486493D01*
X790634Y488275D01*
X793155Y490796D01*
X794937Y493884D01*
X795860Y497327D01*
Y500893D01*
X794937Y504336D01*
X793155Y507424D01*
X792447Y508132D01*
Y551180D01*
X792447Y551180D01*
X792447Y551180D01*
Y563748D01*
X793155Y564456D01*
X794937Y567544D01*
X795860Y570987D01*
Y574553D01*
X794937Y577996D01*
X793155Y581084D01*
X791709Y582530D01*
Y596030D01*
X791885Y596206D01*
X793667Y599294D01*
X794590Y602737D01*
Y606303D01*
X793667Y609746D01*
X791885Y612834D01*
X789364Y615355D01*
X786276Y617137D01*
X782833Y618060D01*
X779267D01*
X775824Y617137D01*
X772736Y615355D01*
X770215Y612834D01*
X768927Y610603D01*
X767773D01*
X766485Y612834D01*
X764264Y615055D01*
Y616650D01*
X764259Y616686D01*
X764510Y617951D01*
X765247Y619053D01*
X766349Y619790D01*
X767614Y620041D01*
X767650Y620036D01*
X814179D01*
X814216Y620041D01*
X815480Y619790D01*
X816546Y619077D01*
X816562Y619057D01*
X847766Y587852D01*
X847787Y587836D01*
X848499Y586771D01*
X848758Y585470D01*
X848499Y584170D01*
X847787Y583103D01*
X847766Y583087D01*
X816536Y551858D01*
X815811Y551169D01*
X815811Y551169D01*
X813244Y548042D01*
X811337Y544473D01*
X810163Y540602D01*
X809766Y536575D01*
X810163Y532548D01*
X811337Y528677D01*
X813244Y525108D01*
X815791Y522005D01*
X815799Y522013D01*
X815817Y522012D01*
X862595Y475234D01*
X863291Y474528D01*
X863291D01*
X863972Y473816D01*
X908144Y427149D01*
X908805Y426613D01*
X909229Y426059D01*
X911013Y424690D01*
X913091Y423830D01*
X915320Y423536D01*
X917549Y423830D01*
X919627Y424690D01*
X921411Y426059D01*
X933990Y438638D01*
X934207Y438580D01*
X937773D01*
X941216Y439503D01*
X944304Y441285D01*
X946825Y443806D01*
X948607Y446894D01*
X949530Y450337D01*
Y453903D01*
X948607Y457346D01*
X946825Y460434D01*
X944304Y462955D01*
X941216Y464737D01*
X937773Y465660D01*
X934207D01*
X931719Y464993D01*
X930903Y465810D01*
X931570Y468298D01*
Y468733D01*
X1025034Y562197D01*
X1025752Y562879D01*
X1025752Y562879D01*
X1026523Y563818D01*
X1026884Y564146D01*
X1038834Y578266D01*
X1039209Y578708D01*
X1039252Y578712D01*
X1039805Y579444D01*
X1040118Y579830D01*
X1041590Y581623D01*
X1043497Y585192D01*
X1044672Y589064D01*
X1045069Y593090D01*
X1044672Y597117D01*
X1043497Y600989D01*
X1041590Y604557D01*
X1039036Y607669D01*
X1039036Y607669D01*
X1039036D01*
X1038319Y608353D01*
X917655Y729016D01*
X917674Y729034D01*
X914546Y731601D01*
X910978Y733508D01*
X907106Y734683D01*
X903080Y735079D01*
Y735054D01*
X791655D01*
X791516Y735035D01*
X789679Y735401D01*
X788004Y736520D01*
X786885Y738195D01*
X786527Y739995D01*
X786694Y740213D01*
X787706Y742655D01*
X788051Y745276D01*
X788841Y745783D01*
X789364Y746085D01*
X791885Y748606D01*
X793173Y750837D01*
X794327D01*
X795615Y748606D01*
X798136Y746085D01*
X801224Y744303D01*
X804667Y743380D01*
X808233D01*
X811676Y744303D01*
X814764Y746085D01*
X817285Y748606D01*
X818573Y750837D01*
X819727D01*
X821015Y748606D01*
X823536Y746085D01*
X826624Y744303D01*
X830067Y743380D01*
X833633D01*
X837076Y744303D01*
X840164Y746085D01*
X842685Y748606D01*
X844467Y751694D01*
X845390Y755137D01*
Y758703D01*
X844467Y762146D01*
X842685Y765234D01*
X840164Y767755D01*
X837076Y769537D01*
X833633Y770460D01*
X830067D01*
X826624Y769537D01*
X823536Y767755D01*
X821015Y765234D01*
X819727Y763003D01*
X818573D01*
X817285Y765234D01*
X814764Y767755D01*
X811676Y769537D01*
X808233Y770460D01*
X804667D01*
X801224Y769537D01*
X798136Y767755D01*
X795615Y765234D01*
X794327Y763003D01*
X793173D01*
X791885Y765234D01*
X789364Y767755D01*
X786276Y769537D01*
X782833Y770460D01*
X779267D01*
X775824Y769537D01*
X772736Y767755D01*
X770215Y765234D01*
X768927Y763003D01*
X767773D01*
X766485Y765234D01*
X763964Y767755D01*
X760876Y769537D01*
X757433Y770460D01*
X753867D01*
X750424Y769537D01*
X747336Y767755D01*
X744815Y765234D01*
X743033Y762146D01*
X742110Y758703D01*
Y755137D01*
X743033Y751694D01*
X744815Y748606D01*
X747036Y746385D01*
Y742950D01*
X747007D01*
X747418Y736683D01*
X748643Y730523D01*
X750662Y724576D01*
X753440Y718944D01*
X756929Y713722D01*
X761070Y709000D01*
X765792Y704859D01*
X771014Y701370D01*
X776646Y698592D01*
X782593Y696573D01*
X788753Y695348D01*
X795020Y694937D01*
Y694966D01*
X901925D01*
X901961Y694971D01*
X903226Y694720D01*
X904300Y694002D01*
X904325Y693969D01*
X998788Y599056D01*
X998813Y599037D01*
X999528Y597968D01*
X999786Y596667D01*
X999528Y595367D01*
X998802Y594281D01*
X998756Y594247D01*
X908705Y506139D01*
X908154Y505600D01*
X908150Y505603D01*
X907976Y505460D01*
X907287Y504735D01*
X903651Y501099D01*
X901852Y501581D01*
X898286D01*
X895798Y500914D01*
X894982Y501731D01*
X895472Y503560D01*
X954555Y562643D01*
X954561Y562644D01*
X954576Y562629D01*
X957135Y565748D01*
X959043Y569316D01*
X960217Y573188D01*
X960614Y577215D01*
X960217Y581241D01*
X959043Y585113D01*
X957135Y588681D01*
X954577Y591799D01*
X954550Y591791D01*
X859235Y687106D01*
X859235Y687106D01*
X859253Y687124D01*
X856126Y689691D01*
X852558Y691598D01*
X848686Y692773D01*
X844659Y693169D01*
Y693144D01*
X844659Y693144D01*
X474828D01*
X474817Y693142D01*
X473570Y693390D01*
X472511Y694098D01*
X472502Y694110D01*
X456629Y709983D01*
X456611Y709996D01*
X455900Y711060D01*
X455649Y712324D01*
X455654Y712361D01*
Y744190D01*
X456076Y744303D01*
X459164Y746085D01*
X461685Y748606D01*
X462973Y750837D01*
X464127D01*
X465415Y748606D01*
X465639Y748382D01*
X464565Y746520D01*
X463710Y743331D01*
Y740029D01*
X464565Y736840D01*
X466216Y733980D01*
X468550Y731646D01*
X471410Y729995D01*
X474599Y729140D01*
X477901D01*
X481090Y729995D01*
X483950Y731646D01*
X486284Y733980D01*
X487935Y736840D01*
X488432Y738694D01*
X489468D01*
X489965Y736840D01*
X491615Y733980D01*
X493950Y731646D01*
X496810Y729995D01*
X499999Y729140D01*
X503301D01*
X506490Y729995D01*
X509350Y731646D01*
X511684Y733980D01*
X513335Y736840D01*
X513832Y738694D01*
X514868D01*
X515365Y736840D01*
X517015Y733980D01*
X519350Y731646D01*
X522210Y729995D01*
X525399Y729140D01*
X528701D01*
X531890Y729995D01*
X534750Y731646D01*
X537085Y733980D01*
X538735Y736840D01*
X539403Y739329D01*
X540438D01*
X540765Y738110D01*
X542416Y735250D01*
X544750Y732915D01*
X547610Y731265D01*
X550799Y730410D01*
X554101D01*
X557290Y731265D01*
X560150Y732915D01*
X562485Y735250D01*
X564135Y738110D01*
X564632Y739964D01*
X565668D01*
X566165Y738110D01*
X567816Y735250D01*
X570150Y732915D01*
X573010Y731265D01*
X576199Y730410D01*
X579501D01*
X582690Y731265D01*
X585550Y732915D01*
X587884Y735250D01*
X589535Y738110D01*
X590032Y739964D01*
X591068D01*
X591565Y738110D01*
X593215Y735250D01*
X595550Y732915D01*
X598410Y731265D01*
X601599Y730410D01*
X604901D01*
X608090Y731265D01*
X610950Y732915D01*
X613284Y735250D01*
X614935Y738110D01*
X615262Y739329D01*
X616297D01*
X616965Y736840D01*
X618615Y733980D01*
X620950Y731646D01*
X623810Y729995D01*
X626999Y729140D01*
X630301D01*
X633490Y729995D01*
X636350Y731646D01*
X638685Y733980D01*
X640335Y736840D01*
X640832Y738694D01*
X641868D01*
X642365Y736840D01*
X644016Y733980D01*
X646350Y731646D01*
X649210Y729995D01*
X652399Y729140D01*
X655701D01*
X658890Y729995D01*
X661750Y731646D01*
X664084Y733980D01*
X665735Y736840D01*
X666403Y739329D01*
X667438D01*
X667765Y738110D01*
X669416Y735250D01*
X671750Y732915D01*
X674610Y731265D01*
X677799Y730410D01*
X681101D01*
X684290Y731265D01*
X687150Y732915D01*
X689484Y735250D01*
X691135Y738110D01*
X691990Y741299D01*
Y744601D01*
X691135Y747790D01*
X690474Y748935D01*
X691573Y750837D01*
X692727D01*
X694015Y748606D01*
X696536Y746085D01*
X699624Y744303D01*
X703067Y743380D01*
X706633D01*
X710076Y744303D01*
X713164Y746085D01*
X715685Y748606D01*
X717467Y751694D01*
X718390Y755137D01*
Y758703D01*
X717467Y762146D01*
X715685Y765234D01*
X713164Y767755D01*
X710076Y769537D01*
X706633Y770460D01*
X703067D01*
X699624Y769537D01*
X696536Y767755D01*
X694015Y765234D01*
X692727Y763003D01*
X691573D01*
X690847Y764260D01*
Y834258D01*
X691555Y834966D01*
X693337Y838054D01*
X694260Y841497D01*
Y845063D01*
X693337Y848506D01*
X691555Y851594D01*
X689034Y854115D01*
X685946Y855897D01*
X682503Y856820D01*
D02*
G37*
G36*
X757433Y822530D02*
X753867D01*
X750424Y821607D01*
X747336Y819825D01*
X744815Y817304D01*
X743033Y814216D01*
X742110Y810773D01*
Y807207D01*
X743033Y803764D01*
X744815Y800676D01*
X747336Y798155D01*
X750424Y796373D01*
X753867Y795450D01*
X757433D01*
X760876Y796373D01*
X763964Y798155D01*
X766485Y800676D01*
X768267Y803764D01*
X769190Y807207D01*
Y810773D01*
X768267Y814216D01*
X766485Y817304D01*
X763964Y819825D01*
X760876Y821607D01*
X757433Y822530D01*
D02*
G37*
G36*
X439933Y812370D02*
X436367D01*
X432924Y811447D01*
X429836Y809665D01*
X427315Y807144D01*
X425533Y804056D01*
X424610Y800613D01*
Y797047D01*
X425533Y793604D01*
X427315Y790516D01*
X429836Y787995D01*
X432924Y786213D01*
X436367Y785290D01*
X439933D01*
X443376Y786213D01*
X446464Y787995D01*
X448985Y790516D01*
X450767Y793604D01*
X451690Y797047D01*
Y800613D01*
X450767Y804056D01*
X448985Y807144D01*
X446464Y809665D01*
X443376Y811447D01*
X439933Y812370D01*
D02*
G37*
G36*
X911103Y675210D02*
X907537D01*
X904094Y674287D01*
X901006Y672505D01*
X898485Y669984D01*
X896703Y666896D01*
X895780Y663453D01*
Y659887D01*
X896703Y656444D01*
X898485Y653356D01*
X901006Y650835D01*
X904094Y649053D01*
X907537Y648130D01*
X911103D01*
X914546Y649053D01*
X917634Y650835D01*
X920155Y653356D01*
X921937Y656444D01*
X922860Y659887D01*
Y663453D01*
X921937Y666896D01*
X920155Y669984D01*
X917634Y672505D01*
X914546Y674287D01*
X911103Y675210D01*
D02*
G37*
G36*
X86873Y510110D02*
X83307D01*
X79864Y509187D01*
X76776Y507405D01*
X74255Y504884D01*
X72473Y501796D01*
X71550Y498353D01*
Y494787D01*
X72473Y491344D01*
X74255Y488256D01*
X76776Y485735D01*
X79864Y483953D01*
X83307Y483030D01*
X86873D01*
X90316Y483953D01*
X93404Y485735D01*
X95925Y488256D01*
X97707Y491344D01*
X98630Y494787D01*
Y498353D01*
X97707Y501796D01*
X95925Y504884D01*
X93404Y507405D01*
X90316Y509187D01*
X86873Y510110D01*
D02*
G37*
G36*
X1068583Y503760D02*
X1065017D01*
X1061574Y502837D01*
X1058486Y501055D01*
X1055965Y498534D01*
X1054183Y495446D01*
X1053260Y492003D01*
Y488437D01*
X1054183Y484994D01*
X1055965Y481906D01*
X1058486Y479385D01*
X1061574Y477603D01*
X1065017Y476680D01*
X1068583D01*
X1072026Y477603D01*
X1075114Y479385D01*
X1077635Y481906D01*
X1079417Y484994D01*
X1080340Y488437D01*
Y492003D01*
X1079417Y495446D01*
X1077635Y498534D01*
X1075114Y501055D01*
X1072026Y502837D01*
X1068583Y503760D01*
D02*
G37*
G36*
X759437Y427736D02*
X756435D01*
X753491Y427150D01*
X750717Y426002D01*
X748221Y424334D01*
X746098Y422211D01*
X744430Y419715D01*
X743282Y416941D01*
X742696Y413997D01*
Y410995D01*
X743282Y408051D01*
X744430Y405277D01*
X746098Y402781D01*
X748221Y400658D01*
X750717Y398991D01*
X753491Y397842D01*
X756435Y397256D01*
X759437D01*
X762381Y397842D01*
X765155Y398991D01*
X767651Y400658D01*
X769774Y402781D01*
X771441Y405277D01*
X772590Y408051D01*
X773176Y410995D01*
Y413997D01*
X772590Y416941D01*
X771441Y419715D01*
X769774Y422211D01*
X767651Y424334D01*
X765155Y426002D01*
X762381Y427150D01*
X759437Y427736D01*
D02*
G37*
G36*
X80525Y334338D02*
X76959D01*
X73516Y333415D01*
X70428Y331633D01*
X67907Y329112D01*
X66125Y326024D01*
X65202Y322581D01*
Y319015D01*
X66125Y315572D01*
X67907Y312484D01*
X70428Y309963D01*
X73516Y308181D01*
X76959Y307258D01*
X80525D01*
X83968Y308181D01*
X87056Y309963D01*
X89577Y312484D01*
X91359Y315572D01*
X92282Y319015D01*
Y322581D01*
X91359Y326024D01*
X89577Y329112D01*
X87056Y331633D01*
X83968Y333415D01*
X80525Y334338D01*
D02*
G37*
G36*
X1083041Y333074D02*
X1079475D01*
X1076032Y332151D01*
X1072944Y330369D01*
X1070423Y327848D01*
X1068641Y324760D01*
X1067718Y321317D01*
Y317751D01*
X1068641Y314308D01*
X1070423Y311220D01*
X1072944Y308699D01*
X1076032Y306917D01*
X1079475Y305994D01*
X1083041D01*
X1086484Y306917D01*
X1089572Y308699D01*
X1092093Y311220D01*
X1093875Y314308D01*
X1094798Y317751D01*
Y321317D01*
X1093875Y324760D01*
X1092093Y327848D01*
X1089572Y330369D01*
X1086484Y332151D01*
X1083041Y333074D01*
D02*
G37*
G36*
X80525Y144346D02*
X76959D01*
X73516Y143423D01*
X70428Y141641D01*
X67907Y139120D01*
X66125Y136032D01*
X65202Y132589D01*
Y129023D01*
X66125Y125580D01*
X67907Y122492D01*
X70428Y119971D01*
X73516Y118189D01*
X76959Y117266D01*
X80525D01*
X83968Y118189D01*
X87056Y119971D01*
X89577Y122492D01*
X91359Y125580D01*
X92282Y129023D01*
Y132589D01*
X91359Y136032D01*
X89577Y139120D01*
X87056Y141641D01*
X83968Y143423D01*
X80525Y144346D01*
D02*
G37*
G36*
X1083041Y143082D02*
X1079475D01*
X1076032Y142159D01*
X1072944Y140377D01*
X1070423Y137856D01*
X1068641Y134768D01*
X1067718Y131325D01*
Y127759D01*
X1068641Y124316D01*
X1070423Y121228D01*
X1072944Y118707D01*
X1076032Y116925D01*
X1079475Y116002D01*
X1083041D01*
X1086484Y116925D01*
X1089572Y118707D01*
X1092093Y121228D01*
X1093875Y124316D01*
X1094798Y127759D01*
Y131325D01*
X1093875Y134768D01*
X1092093Y137856D01*
X1089572Y140377D01*
X1086484Y142159D01*
X1083041Y143082D01*
D02*
G37*
G36*
X389105Y57404D02*
X386103D01*
X383159Y56818D01*
X380385Y55669D01*
X377889Y54002D01*
X375766Y51879D01*
X374099Y49383D01*
X372950Y46609D01*
X372364Y43665D01*
Y40663D01*
X372950Y37719D01*
X374099Y34945D01*
X375766Y32449D01*
X377889Y30326D01*
X380385Y28658D01*
X383159Y27510D01*
X386103Y26924D01*
X389105D01*
X392049Y27510D01*
X394823Y28658D01*
X397319Y30326D01*
X399442Y32449D01*
X401110Y34945D01*
X402258Y37719D01*
X402844Y40663D01*
Y43665D01*
X402258Y46609D01*
X401110Y49383D01*
X399442Y51879D01*
X397319Y54002D01*
X394823Y55669D01*
X392049Y56818D01*
X389105Y57404D01*
D02*
G37*
G36*
X771121Y45720D02*
X768119D01*
X765175Y45134D01*
X762401Y43986D01*
X759905Y42318D01*
X757782Y40195D01*
X756115Y37699D01*
X754966Y34925D01*
X754380Y31981D01*
Y28979D01*
X754966Y26035D01*
X756115Y23261D01*
X757782Y20765D01*
X759905Y18642D01*
X762401Y16975D01*
X765175Y15826D01*
X768119Y15240D01*
X771121D01*
X774065Y15826D01*
X776839Y16975D01*
X779335Y18642D01*
X781458Y20765D01*
X783126Y23261D01*
X784274Y26035D01*
X784860Y28979D01*
Y31981D01*
X784274Y34925D01*
X783126Y37699D01*
X781458Y40195D01*
X779335Y42318D01*
X776839Y43986D01*
X774065Y45134D01*
X771121Y45720D01*
D02*
G37*
%LPD*%
D10*
X450735Y756802D02*
G03*
X450853Y756917I-5921J6154D01*
G01*
X447040Y712361D02*
G03*
X450538Y703892I12000J0D01*
G01*
X450735Y756802D02*
G03*
X447040Y748139I8305J-8662D01*
G01*
X466411Y688019D02*
G03*
X474828Y684530I8460J8511D01*
G01*
X422910Y714901D02*
G03*
X426412Y706428I12000J0D01*
G01*
X461318Y671522D02*
G03*
X469791Y668020I8473J8498D01*
G01*
X565150Y656020D02*
G03*
X553150Y668020I-12000J0D01*
G01*
X853145Y681015D02*
G03*
X844659Y684530I-8485J-8485D01*
G01*
X425450Y756920D02*
G03*
X422910Y749562I9460J-7383D01*
G01*
X565150Y553184D02*
G03*
X577150Y541184I12000J0D01*
G01*
X585543D02*
G03*
X590538Y542284I-25J12000D01*
G01*
X330200Y453960D02*
G03*
X342200Y441960I12000J0D01*
G01*
X616650D02*
G03*
X628650Y453960I0J12000D01*
G01*
X911565Y722925D02*
G03*
X903080Y726440I-8485J-8485D01*
G01*
X777925Y740170D02*
G03*
X791655Y726440I13730J0D01*
G01*
X869551Y480452D02*
G03*
X869321Y480689I-8715J-8249D01*
G01*
X821920Y545060D02*
G03*
X821907Y528102I8485J-8485D01*
G01*
X1033103Y584798D02*
G03*
X1032668Y584314I8705J-8260D01*
G01*
X1033118Y584814D02*
G03*
X1032922Y601568I-8689J8276D01*
G01*
X1019643Y568988D02*
G03*
X1020309Y569711I-8485J8485D01*
G01*
X918030Y470080D02*
G03*
X923958Y473303I-2536J11729D01*
G01*
X900069Y488041D02*
G03*
X906009Y491275I-2536J11729D01*
G01*
X914178Y499443D02*
G03*
X914085Y499351I8392J-8577D01*
G01*
X1004780Y588090D02*
G03*
X1004900Y605126I-8392J8577D01*
G01*
X948464Y568734D02*
G03*
X948465Y585695I-8490J8481D01*
G01*
X882131Y506004D02*
G03*
X889150Y509420I-1455J11911D01*
G01*
X888140Y547954D02*
G03*
X888509Y548339I-8485J8485D01*
G01*
X846187Y541923D02*
G03*
X854009Y545399I-643J11983D01*
G01*
X868366Y559756D02*
G03*
X868978Y560418I-8495J8475D01*
G01*
X884312Y578292D02*
G03*
X883706Y594574I-9108J7814D01*
G01*
X915782Y578833D02*
G03*
X913535Y592685I-10733J5367D01*
G01*
X913904Y576100D02*
G03*
X915782Y578833I-8854J8100D01*
G01*
X425562Y604636D02*
G03*
X425447Y604523I5924J-6151D01*
G01*
X425562Y604636D02*
G03*
X429260Y613293I-8302J8665D01*
G01*
X429260Y625540D02*
G03*
X417260Y637540I-12000J0D01*
G01*
X272141Y500741D02*
G03*
X269968Y503726I-10672J-5486D01*
G01*
X263865Y583905D02*
G03*
X260350Y575419I8485J-8485D01*
G01*
Y518314D02*
G03*
X263860Y509834I12000J0D01*
G01*
X350411Y637540D02*
G03*
X341925Y634025I0J-12000D01*
G01*
X278130Y530702D02*
G03*
X290011Y518702I12000J0D01*
G01*
X281645Y573745D02*
G03*
X278130Y565259I8485J-8485D01*
G01*
X330200Y545475D02*
G03*
X326695Y553950I-12000J0D01*
G01*
X464250Y576580D02*
G03*
X476250Y588580I0J12000D01*
G01*
X443259Y576580D02*
G03*
X431289Y565429I0J-12000D01*
G01*
X463870Y558188D02*
G03*
X454660Y546517I2790J-11671D01*
G01*
X485868Y563447D02*
G03*
X494834Y572616I-2770J11676D01*
G01*
X429832Y526581D02*
G03*
X429834Y526800I-11998J219D01*
G01*
X501645Y604496D02*
G03*
X501650Y604520I-11730J2531D01*
G01*
X431134Y563242D02*
G03*
X431104Y562417I11970J-849D01*
G01*
X429843Y534923D02*
G03*
X429834Y534477I11991J-469D01*
G01*
X430530Y552450D02*
G03*
X431104Y556117I-11426J3667D01*
G01*
X590550Y567690D02*
G03*
X603135Y579676I585J11986D01*
G01*
X853856Y576996D02*
G03*
X853857Y593943I-8497J8474D01*
G01*
X822652Y625148D02*
G03*
X814179Y628650I-8473J-8498D01*
G01*
X767650D02*
G03*
X755650Y616650I0J-12000D01*
G01*
X910431Y700045D02*
G03*
X901925Y703580I-8505J-8465D01*
G01*
X844255Y661965D02*
G03*
X835770Y665480I-8485J-8485D01*
G01*
X834769Y643512D02*
G03*
X826296Y647013I-8472J-8498D01*
G01*
X742710D02*
G03*
X727710Y632013I0J-15000D01*
G01*
X755650Y742950D02*
G03*
X795020Y703580I39370J0D01*
G01*
X669050Y665480D02*
G03*
X654050Y650480I0J-15000D01*
G01*
X299720Y563880D02*
X340360Y604520D01*
X374650D01*
X299720Y547710D02*
Y563880D01*
X308062Y536662D02*
Y539368D01*
X299720Y547710D02*
X308062Y539368D01*
X450555Y703875D02*
X466411Y688019D01*
X447040Y712361D02*
Y748139D01*
X450853Y756917D02*
X450855Y756915D01*
X450538Y703892D02*
X450555Y703875D01*
X474870Y684530D02*
X844659D01*
X474828D02*
X474870D01*
X422910Y714901D02*
Y749562D01*
X469791Y668020D02*
X553150D01*
X426412Y706428D02*
X461318Y671522D01*
X565150Y594360D02*
Y656020D01*
X853145Y681015D02*
X948460Y585700D01*
X425450Y756920D02*
X425450Y756920D01*
X590538Y542284D02*
X590550Y542290D01*
X565150Y553184D02*
Y594360D01*
X577150Y541184D02*
X585543D01*
X628650Y453960D02*
Y604520D01*
X342200Y441960D02*
X616650D01*
X330200Y453960D02*
Y545475D01*
X911565Y722925D02*
X1032914Y601575D01*
X791655Y726440D02*
X903080D01*
X821907Y528102D02*
X869321Y480689D01*
X869551Y480452D02*
X914400Y433070D01*
X821920Y545060D02*
X853856Y576996D01*
X1020309Y569711D02*
X1032668Y584314D01*
X923958Y473303D02*
X1019643Y568988D01*
X1033103Y584798D02*
X1033118Y584814D01*
X918029Y470080D02*
X918030D01*
X900069Y488041D02*
X900069D01*
X906009Y491275D02*
X914085Y499351D01*
X914178Y499443D02*
X1004780Y588090D01*
X1004893Y605132D02*
X1004900Y605126D01*
X910431Y700045D02*
X1004893Y605132D01*
X882109Y506002D02*
X882131Y506004D01*
X889150Y509420D02*
X948464Y568734D01*
X948460Y585700D02*
X948465Y585695D01*
X888884Y548750D02*
X913904Y576100D01*
X888509Y548339D02*
X888884Y548750D01*
X864148Y523962D02*
X888140Y547954D01*
X872775Y564844D02*
X884312Y578292D01*
X854009Y545399D02*
X868366Y559756D01*
X868978Y560418D02*
X872775Y564844D01*
X915320Y432150D02*
X935290Y452120D01*
X935990D01*
X834769Y643512D02*
X883690Y594590D01*
X883706Y594574D01*
X400050Y622650D02*
X400956Y619931D01*
X400050Y604520D02*
Y618119D01*
X400956Y619931D01*
X373510Y655320D02*
X400050D01*
X369700D02*
X373510D01*
X335280D02*
X369700D01*
X263865Y583905D02*
X335280Y655320D01*
X425445Y604525D02*
X425447Y604523D01*
X429260Y613293D02*
Y625540D01*
X350411Y637540D02*
X417260D01*
X263860Y509834D02*
X269968Y503726D01*
X260350Y518314D02*
Y575419D01*
X281645Y573745D02*
X341925Y634025D01*
X290011Y518702D02*
X290102Y518702D01*
X290102Y518702D02*
X290102Y518702D01*
X278130Y530702D02*
Y565259D01*
X326023Y554623D02*
X326695Y553950D01*
X443259Y576580D02*
X464250D01*
X431134Y563242D02*
X431289Y565429D01*
X476250Y588580D02*
Y604520D01*
X463870Y558188D02*
X485868Y563447D01*
X454660Y526800D02*
Y541020D01*
X494834Y572616D02*
X501645Y604496D01*
X454660Y541020D02*
Y546517D01*
X429834Y526800D02*
Y534477D01*
X429260Y495300D02*
X429832Y526581D01*
X454660Y495300D02*
Y510540D01*
X454660D02*
Y526800D01*
X431104Y556117D02*
Y562417D01*
X429843Y534923D02*
X430530Y552450D01*
X590550Y567690D02*
X590550Y567690D01*
X603135Y579676D02*
Y604353D01*
X767650Y628650D02*
X814179D01*
X822652Y625148D02*
X853857Y593943D01*
X755650Y604520D02*
Y616650D01*
X795020Y703580D02*
X901925D01*
X844255Y661965D02*
X913535Y592685D01*
X669050Y665480D02*
X835770D01*
X742710Y647013D02*
X826296D01*
X1032914Y601575D02*
X1032922Y601567D01*
X727710Y612872D02*
Y632013D01*
X755650Y742950D02*
Y756920D01*
X778119Y747685D02*
X778336Y749009D01*
X654050Y604520D02*
Y650480D01*
D11*
X278130Y392190D02*
G03*
X293130Y377190I15000J0D01*
G01*
X645400D02*
G03*
X660400Y392190I0J15000D01*
G01*
X675400Y548240D02*
G03*
X660400Y533240I0J-15000D01*
G01*
X278130Y452618D02*
G03*
X273745Y463217I-15000J0D01*
G01*
X628650Y756920D02*
G03*
X629920Y762961I-13730J6040D01*
G01*
X603250Y756920D02*
G03*
X604520Y762961I-13730J6040D01*
G01*
X218440Y524734D02*
G03*
X222833Y514128I15000J0D01*
G01*
Y634313D02*
G03*
X218440Y623707I10607J-10607D01*
G01*
X525780Y617460D02*
G03*
X510780Y632460I-15000J0D01*
G01*
X453192Y636375D02*
G03*
X463298Y632460I10106J11085D01*
G01*
X413024Y672995D02*
G03*
X402919Y676910I-10106J-11085D01*
G01*
X349782Y752961D02*
G03*
X349257Y756894I-15000J0D01*
G01*
X349782Y691910D02*
G03*
X364782Y676910I15000J0D01*
G01*
X523268Y580965D02*
G03*
X525780Y589246I-12488J8309D01*
G01*
X516550Y570928D02*
G03*
X517337Y572051I-22557J16656D01*
G01*
X487370Y542290D02*
G03*
X481330Y541020I0J-15000D01*
G01*
X505460Y503950D02*
G03*
X520460Y488950I15000J0D01*
G01*
X513741Y567124D02*
G03*
X504190Y542290I40290J-29749D01*
G01*
X353634Y770887D02*
G03*
X349250Y760290I10616J-10597D01*
G01*
X425330Y841890D02*
G03*
X422316Y839569I7572J-12949D01*
G01*
X582226Y488950D02*
G03*
X585337Y489282I-28J15000D01*
G01*
X778119Y747685D02*
G03*
X777924Y745276I14805J-2410D01*
G01*
X727710Y612872D02*
G03*
X730250Y604520I15000J0D01*
G01*
X779939Y754398D02*
G03*
X779297Y752650I13732J-6035D01*
G01*
X778753Y750820D02*
G03*
X778336Y749009I14382J-4260D01*
G01*
X476250Y756920D02*
G03*
X477520Y762961I-13730J6040D01*
G01*
X679450Y756920D02*
G03*
X680720Y762961I-13730J6040D01*
G01*
X655320Y843280D02*
G03*
X654050Y837267I13730J-6040D01*
G01*
X293130Y377190D02*
X645400D01*
X278130Y392190D02*
Y452618D01*
X660400Y392190D02*
Y533240D01*
X254181Y482780D02*
X273745Y463217D01*
X628650Y741680D02*
Y756920D01*
X603250Y742950D02*
Y756920D01*
X222833Y634313D02*
X345440Y756920D01*
X222833Y514128D02*
X254181Y482780D01*
X218440Y524734D02*
Y623707D01*
X675400Y548240D02*
X727710D01*
X782320Y551180D02*
Y572770D01*
X727710Y548240D02*
X776840D01*
X781050Y552450D01*
X525780Y589246D02*
Y617460D01*
X463298Y632460D02*
X510780D01*
X413024Y672995D02*
X453192Y636375D01*
X364782Y676910D02*
X402919D01*
X349782Y691910D02*
Y752961D01*
X349250Y756920D02*
X349257Y756894D01*
X349250Y756920D02*
Y760290D01*
X345440Y756920D02*
X349250D01*
X513741Y567124D02*
X516550Y570928D01*
X517337Y572051D02*
X523268Y580965D01*
X505460Y503950D02*
Y539750D01*
X487370Y542290D02*
X504190D01*
X353634Y770887D02*
X422316Y839569D01*
X425330Y841890D02*
X425330Y842583D01*
X585337Y489282D02*
X589160Y490100D01*
X582226Y488950D02*
X582226D01*
X520460D02*
X582226D01*
X589160Y490100D02*
X590550Y491490D01*
X782320Y499110D02*
Y551180D01*
X781050Y552450D02*
X782320Y551180D01*
X781582Y573508D02*
Y603988D01*
X781050Y604520D02*
X781582Y603988D01*
Y573508D02*
X782320Y572770D01*
X778753Y750820D02*
X779297Y752650D01*
X779939Y754398D02*
X781050Y756920D01*
X831850D02*
X832889Y755530D01*
X604520Y762961D02*
Y843280D01*
X577850Y757672D02*
X579120Y758942D01*
X552450Y757672D02*
X553720Y758942D01*
X527050Y757672D02*
X528320Y758942D01*
X501650Y757672D02*
X502920Y758942D01*
X477520Y762961D02*
Y843280D01*
X579120Y758942D02*
Y843280D01*
X553720Y758942D02*
Y843280D01*
X528320Y758942D02*
Y843280D01*
X502920Y758942D02*
Y843280D01*
X680720Y762961D02*
Y843280D01*
X654050Y756920D02*
Y837267D01*
X629920Y762961D02*
Y843280D01*
D14*
X150000Y550000D02*
D03*
X1050000D02*
D03*
D15*
X78742Y130806D02*
D03*
Y320798D02*
D03*
X935990Y452120D02*
D03*
X918029Y470080D02*
D03*
X900069Y488041D02*
D03*
X882109Y506002D02*
D03*
X864148Y523962D02*
D03*
X846187Y541923D02*
D03*
X236220Y464820D02*
D03*
X430530Y541020D02*
D03*
X455930D02*
D03*
X481330D02*
D03*
X532130D02*
D03*
X590550Y567690D02*
D03*
Y542290D02*
D03*
Y516890D02*
D03*
Y491490D02*
D03*
X387604Y42164D02*
D03*
Y412496D02*
D03*
X757936D02*
D03*
X769620Y30480D02*
D03*
D03*
X505460Y495300D02*
D03*
X480060D02*
D03*
X454660D02*
D03*
X429260D02*
D03*
X727710Y523240D02*
D03*
Y548240D02*
D03*
X817880Y572770D02*
D03*
X782320D02*
D03*
X806450Y604520D02*
D03*
X781050D02*
D03*
X755650D02*
D03*
X730250D02*
D03*
X704850D02*
D03*
X679450D02*
D03*
X654050D02*
D03*
X628650D02*
D03*
X603250D02*
D03*
X501650D02*
D03*
X476250D02*
D03*
X425450D02*
D03*
X400050D02*
D03*
X374650D02*
D03*
X831850Y756920D02*
D03*
X806450D02*
D03*
X781050D02*
D03*
X755650D02*
D03*
X704850D02*
D03*
X679450D02*
D03*
X654050D02*
D03*
X628650D02*
D03*
X603250D02*
D03*
X577850D02*
D03*
X552450D02*
D03*
X527050D02*
D03*
X501650D02*
D03*
X476250D02*
D03*
X450850D02*
D03*
X425450D02*
D03*
X374650D02*
D03*
X349250D02*
D03*
X254181Y482780D02*
D03*
X272141Y500741D02*
D03*
X290102Y518702D02*
D03*
X308062Y536662D02*
D03*
X326023Y554623D02*
D03*
X1066800Y490220D02*
D03*
X909320Y661670D02*
D03*
X755650Y808990D02*
D03*
X438150Y798830D02*
D03*
X250190Y608330D02*
D03*
X85090Y496570D02*
D03*
X1081258Y129542D02*
D03*
Y319534D02*
D03*
X426720Y843280D02*
D03*
X452120D02*
D03*
X477520D02*
D03*
X502920D02*
D03*
X528320D02*
D03*
X553720D02*
D03*
X579120D02*
D03*
X604520D02*
D03*
X629920D02*
D03*
X655320D02*
D03*
X680720D02*
D03*
X807720Y499110D02*
D03*
X782320D02*
D03*
D16*
X679450Y717550D02*
D03*
Y742950D02*
D03*
X654050Y716280D02*
D03*
Y741680D02*
D03*
X628650Y716280D02*
D03*
Y741680D02*
D03*
X603250Y717550D02*
D03*
Y742950D02*
D03*
X577850Y717550D02*
D03*
Y742950D02*
D03*
X552450Y717550D02*
D03*
Y742950D02*
D03*
X527050Y716280D02*
D03*
Y741680D02*
D03*
X501650Y716280D02*
D03*
Y741680D02*
D03*
X476250Y716280D02*
D03*
Y741680D02*
D03*
D17*
X400050Y622650D02*
D03*
Y655320D02*
D03*
M02*
