M48
;Layer_Color=9474304
;FILE_FORMAT=4:4
METRIC,LZ
;TYPE=PLATED
T01F00S00C0.7000
T02F00S00C0.7112
T03F00S00C0.7620
T04F00S00C0.9000
T05F00S00C1.0000
T06F00S00C2.0000
T07F00S00C2.0066
T08F00S00C2.5400
%
T01
X0078232Y0057277
X0081788
T02
X0040005Y0062265
Y0065532
T03
X0072771Y0052324
Y0054824
T04
X0059055Y0049149
Y0051689
X0078232Y0049911
X0080772
X0050546Y004953
X0048006
X0045466
X0042926
X00272141Y00500741
X00290102Y00518702
X00308062Y00536662
X00254181Y0048278
X0023622Y0046482
X0015Y0055
X00326023Y00554623
X0037465Y0060452
X0040005
X0042545
X0047625
X0050165
X0048133Y0054102
X0045593
X0043053
X0053213
X0052705Y0071628
Y0074168
Y0075692
X0050165
Y0074168
Y0071628
X0047625
Y0074168
Y0075692
X0045085
X0042545
X0037465
X0034925
X0042672Y0084328
X0045212
X0047752
X0050292
X0052832
X0055372
X0057912
X0060452
X0062992
X0065532
X0068072
X0067945Y0075692
Y0074295
Y0071755
X0065405Y0071628
Y0074168
Y0075692
X0062865
Y0074168
Y0071628
X0060325Y0071755
Y0074295
Y0075692
X0057785
Y0074295
Y0071755
X0055245
Y0074295
Y0075692
X0070485
X0075565
X0078105
X0080645
X0083185
X0080645Y0060452
X0078105
X0075565
X0073025
X0070485
X0067945
X0065405
X0062865
X0060325
X0059055Y0056769
Y0054229
X0105Y0055
T05
X0093599Y0045212
X00918029Y0047008
X00900069Y00488041
X00882109Y00506002
X00864148Y00523962
X00846187Y00541923
T06
X010668Y0049022
X0008509Y0049657
X0025019Y0060833
X0043815Y0079883
X0075565Y0080899
X0090932Y0066167
T07
X00078742Y00130806
X01081258Y00129542
Y00319534
X00078742Y00320798
T08
X00387604Y00042164
X0076962Y0003048
X00757936Y00412496
X00387604
M30
