M48
;Layer_Color=9474304
;FILE_FORMAT=4:4
METRIC,LZ
;TYPE=PLATED
T01F00S00C0.7000
T02F00S00C0.7620
T03F00S00C0.8000
T04F00S00C0.9000
T05F00S00C1.0000
T06F00S00C1.5240
T07F00S00C2.0000
%
T01
X004445Y0112395
Y0115951
T02
X0074295Y0117348
Y0119848
T03
X-0007366Y0057341
Y0065341
X-0008191Y0068199
X-0000191
X0007493Y0070168
Y0078168
X0011493Y008255
X0003493
X0022606Y0085027
Y0093027
X0094615Y0090995
Y0082995
X0100267Y0082296
X0108267
X0109982Y0076517
Y0068517
X0114618Y0068326
X0111887Y0065214
Y0057214
X0122618Y0068326
X0094297Y0097282
X0086297
X0080772Y0101029
Y0109029
X0079311Y011303
X0071311
X0065151Y010814
Y010014
X0049403Y0104966
Y0112966
X0041846Y0112268
X0033846
X0037465Y0108394
Y0100394
X0026733Y0097282
X0018733
T04
X0015Y0055
X0042672Y0084328
X0045212
X0047752
X0050292
X0052832
X0055372
X0057912
X0060452
X0062992
X0065532
X0068072
X0105Y0055
T05
X-000327Y005725
X-000073
Y006275
X-000327
X001173Y007225
X001427
Y007775
X001173
X002673Y008725
X002927
Y009275
X002673
X008673
X008927
Y008725
X008673
X010173Y007775
X010427
Y007225
X010173
X011673Y006275
X011927
Y005725
X011673
X007427Y010225
X007173
Y010775
X007427
X005927
X005673
Y010225
X005927
X004427
X004173
Y010775
X004427
T06
X00663067Y0119253
X00502793
T07
X010668Y0049022
X0008509Y0049657
X0025019Y0060833
X0043815Y0079883
X0075565Y0080899
X0090932Y0066167
M30
